<svg width="994" height="255" viewBox="0 0 994 255" fill="none" xmlns="http://www.w3.org/2000/svg">
<path d="M390.52 166.728C383.032 166.728 376.408 165.144 370.648 161.976C364.888 158.808 360.376 154.296 357.112 148.44C353.944 142.488 352.36 135.48 352.36 127.416V59.88H368.92V102.648H369.064C371.368 98.808 374.68 95.736 379 93.432C383.416 91.032 388.168 89.832 393.256 89.832C400.168 89.832 406.312 91.416 411.688 94.584C417.064 97.656 421.24 101.976 424.216 107.544C427.288 113.112 428.824 119.64 428.824 127.128C428.824 135 427.24 141.912 424.072 147.864C421 153.816 416.584 158.472 410.824 161.832C405.16 165.096 398.392 166.728 390.52 166.728ZM390.52 152.616C396.856 152.616 402.04 150.36 406.072 145.848C410.104 141.336 412.12 135.48 412.12 128.28C412.12 123.576 411.208 119.4 409.384 115.752C407.56 112.104 405.016 109.224 401.752 107.112C398.488 105 394.792 103.944 390.664 103.944C384.328 103.944 379.144 106.248 375.112 110.856C371.08 115.368 369.064 121.176 369.064 128.28C369.064 135.48 371.08 141.336 375.112 145.848C379.144 150.36 384.28 152.616 390.52 152.616ZM480.195 166.728C472.611 166.728 465.843 165.048 459.891 161.688C454.035 158.232 449.427 153.624 446.067 147.864C442.707 142.008 441.027 135.48 441.027 128.28C441.027 121.08 442.707 114.6 446.067 108.84C449.427 102.984 454.035 98.376 459.891 95.016C465.843 91.56 472.611 89.832 480.195 89.832C487.683 89.832 494.355 91.56 500.211 95.016C506.163 98.376 510.819 102.984 514.179 108.84C517.539 114.6 519.219 121.08 519.219 128.28C519.219 135.48 517.539 142.008 514.179 147.864C510.819 153.624 506.163 158.232 500.211 161.688C494.355 165.048 487.683 166.728 480.195 166.728ZM480.195 152.616C484.707 152.616 488.643 151.56 492.003 149.448C495.363 147.24 497.955 144.312 499.779 140.664C501.603 136.92 502.515 132.792 502.515 128.28C502.515 123.768 501.603 119.688 499.779 116.04C497.955 112.296 495.363 109.368 492.003 107.256C488.643 105.048 484.707 103.944 480.195 103.944C475.587 103.944 471.603 105.048 468.243 107.256C464.979 109.368 462.387 112.296 460.467 116.04C458.643 119.688 457.731 123.768 457.731 128.28C457.731 132.792 458.643 136.92 460.467 140.664C462.387 144.312 464.979 147.24 468.243 149.448C471.603 151.56 475.587 152.616 480.195 152.616ZM535.642 165V59.88H552.202V98.904C555.178 95.736 558.634 93.432 562.57 91.992C566.506 90.552 570.49 89.832 574.522 89.832C581.242 89.832 586.954 91.272 591.658 94.152C596.458 96.936 600.106 100.824 602.602 105.816C605.098 110.712 606.346 116.328 606.346 122.664V165H589.93V122.808C589.93 119.064 589.018 115.8 587.194 113.016C585.466 110.136 583.162 107.928 580.282 106.392C577.498 104.76 574.378 103.944 570.922 103.944C567.658 103.944 564.586 104.712 561.706 106.248C558.826 107.784 556.522 109.944 554.794 112.728C553.066 115.512 552.202 118.68 552.202 122.232V165H535.642ZM664.076 165C655.82 165 648.572 163.464 642.332 160.392C636.188 157.224 631.388 152.904 627.932 147.432C624.476 141.864 622.748 135.48 622.748 128.28C622.748 120.696 624.284 114.024 627.356 108.264C630.428 102.504 634.652 97.992 640.028 94.728C645.404 91.464 651.596 89.832 658.604 89.832C666.476 89.832 672.956 91.512 678.044 94.872C683.132 98.232 686.876 102.744 689.276 108.408C691.772 114.072 693.02 120.408 693.02 127.416C693.02 129.72 692.828 131.784 692.444 133.608H640.316C641.18 139.272 643.82 143.592 648.236 146.568C652.652 149.448 657.932 150.888 664.076 150.888H683.804V165H664.076ZM640.172 122.376H676.46C676.364 119.304 675.692 116.328 674.444 113.448C673.196 110.472 671.276 108.072 668.684 106.248C666.188 104.424 662.828 103.512 658.604 103.512C654.764 103.512 651.5 104.472 648.812 106.392C646.22 108.216 644.204 110.568 642.764 113.448C641.324 116.328 640.46 119.304 640.172 122.376ZM709.207 165V121.08C709.207 115.416 710.551 110.232 713.239 105.528C715.927 100.728 719.767 96.936 724.759 94.152C729.847 91.272 735.991 89.832 743.191 89.832C748.375 89.832 753.223 90.84 757.735 92.856C762.343 94.872 766.087 97.992 768.967 102.216H769.111C771.991 97.992 775.735 94.872 780.343 92.856C784.951 90.84 789.847 89.832 795.031 89.832C802.231 89.832 808.327 91.272 813.319 94.152C818.407 96.936 822.295 100.728 824.983 105.528C827.671 110.232 829.015 115.416 829.015 121.08V165H812.599V121.08C812.599 117.912 811.783 115.032 810.151 112.44C808.615 109.848 806.503 107.784 803.815 106.248C801.223 104.712 798.295 103.944 795.031 103.944C791.767 103.944 788.791 104.712 786.103 106.248C783.415 107.784 781.255 109.848 779.623 112.44C778.087 115.032 777.319 117.912 777.319 121.08V165H760.903V121.08C760.903 117.912 760.087 115.032 758.455 112.44C756.919 109.848 754.807 107.784 752.119 106.248C749.431 104.712 746.455 103.944 743.191 103.944C739.927 103.944 736.951 104.712 734.263 106.248C731.671 107.784 729.559 109.848 727.927 112.44C726.391 115.032 725.623 117.912 725.623 121.08V165H709.207ZM849.567 165V91.56H866.127V165H849.567ZM857.775 81.336C854.895 81.336 852.399 80.28 850.287 78.168C848.175 76.056 847.119 73.56 847.119 70.68C847.119 67.8 848.175 65.304 850.287 63.192C852.399 61.08 854.895 60.024 857.775 60.024C860.751 60.024 863.247 61.08 865.263 63.192C867.375 65.304 868.431 67.8 868.431 70.68C868.431 73.56 867.375 76.056 865.263 78.168C863.247 80.28 860.751 81.336 857.775 81.336ZM921.701 166.728C914.117 166.728 907.349 165.048 901.397 161.688C895.541 158.232 890.933 153.624 887.573 147.864C884.213 142.008 882.533 135.48 882.533 128.28C882.533 121.08 884.213 114.6 887.573 108.84C890.933 102.984 895.541 98.376 901.397 95.016C907.349 91.56 914.117 89.832 921.701 89.832C929.189 89.832 935.861 91.56 941.717 95.016C947.669 98.376 952.325 102.984 955.685 108.84C959.045 114.6 960.725 121.08 960.725 128.28C960.725 135.48 959.045 142.008 955.685 147.864C952.325 153.624 947.669 158.232 941.717 161.688C935.861 165.048 929.189 166.728 921.701 166.728ZM921.701 152.616C926.213 152.616 930.149 151.56 933.509 149.448C936.869 147.24 939.461 144.312 941.285 140.664C943.109 136.92 944.021 132.792 944.021 128.28C944.021 123.768 943.109 119.688 941.285 116.04C939.461 112.296 936.869 109.368 933.509 107.256C930.149 105.048 926.213 103.944 921.701 103.944C917.093 103.944 913.109 105.048 909.749 107.256C906.485 109.368 903.893 112.296 901.973 116.04C900.149 119.688 899.237 123.768 899.237 128.28C899.237 132.792 900.149 136.92 901.973 140.664C903.893 144.312 906.485 147.24 909.749 149.448C913.109 151.56 917.093 152.616 921.701 152.616Z" fill="#0E4666"/>
<path d="M74 63.0338L74 175.91C74 185.229 81.2008 192.783 90.0834 192.783C98.966 192.783 106.167 185.229 106.167 175.91V63.0338C106.167 53.7151 98.9659 46.1607 90.0833 46.1607C81.2007 46.1607 74 53.7151 74 63.0338Z" fill="#C40186"/>
<path d="M263 63.0338V175.91C263 185.229 270.201 192.783 279.083 192.783C287.966 192.783 295.167 185.229 295.167 175.91V63.0338C295.167 53.7151 287.966 46.1607 279.083 46.1607C270.201 46.1607 263 53.7151 263 63.0338Z" fill="#7AC45C"/>
<path d="M171 63.296V183.244C171 192.708 178.164 200.379 187 200.379C195.837 200.379 203 192.708 203 183.244V63.296C203 53.8325 195.836 46.1607 187 46.1607C178.163 46.1607 171 53.8325 171 63.296Z" fill="#57F9E2"/>
<path d="M123 20.8227L123 214.177C123 225.677 129.94 235 138.5 235H138.5C147.06 235 154 225.677 154 214.177V20.8227C154 9.32263 147.06 0 138.5 0C129.94 0 123 9.32263 123 20.8227Z" fill="#FC5845"/>
<path d="M246 13.9218C246 6.23299 239.732 0 232 0C224.268 0 218 6.23299 218 13.9218V221.078C218 228.767 224.268 235 232 235C239.732 235 246 228.767 246 221.078V13.9218Z" fill="#AEEB5A"/>
</svg>
